<?xml version="1.0" encoding="UTF-8" standalone="no"?>
<svg width="456" height="456" viewBox="0 0 456 456" version="1.1" xmlns="http://www.w3.org/2000/svg">
    <g fill="none" stroke-linecap="round" stroke-linejoin="round">
        <path d="M142 116h144c28 0 50 22 50 50v174c0 14-11 25-25 25H142c-19 0-34-15-34-34V150c0-19 15-34 34-34Z"
              fill="#5a4638" stroke="#c28b3c" stroke-width="14" />
        <path d="M142 116c-19 0-34 15-34 34v181c0-19 15-34 34-34h194"
              stroke="#f4d28e" stroke-width="10" />
        <path d="M164 150v147" stroke="#c28b3c" stroke-width="8" />
        <path d="M193 188l35-20 35 20 22 36-22 54-35 19-35-19-22-54 22-36Z"
              fill="#2b2420" stroke="#f4d28e" stroke-width="10" />
        <path d="M193 188l35 36 35-36M171 224h57l35 54M228 224v73"
              stroke="#c28b3c" stroke-width="7" />
        <path d="M202 245h52" stroke="#f4d28e" stroke-width="9" />
        <path d="M204 330h84" stroke="#f4d28e" stroke-width="9" />
    </g>
</svg>
